<?xml version="1.0" encoding="utf-8"?>
<!-- Generator: Adobe Illustrator 18.1.1, SVG Export Plug-In . SVG Version: 6.00 Build 0)  -->
<!DOCTYPE svg PUBLIC "-//W3C//DTD SVG 1.1//EN" "http://www.w3.org/Graphics/SVG/1.1/DTD/svg11.dtd">
<svg version="1.1" id="_x31_0" xmlns="http://www.w3.org/2000/svg" xmlns:xlink="http://www.w3.org/1999/xlink" x="0px" y="0px"
	 viewBox="0 0 512 512" style="enable-background:new 0 0 512 512;" xml:space="preserve">
<style type="text/css">
	.st0{fill:#06c286;}
</style>
<g>
	<path class="st0" d="M472.398,0H39.68C17.84,0,0,17.84,0,39.68v432.722C0,494.16,17.84,512,39.68,512h432.718
		C494.16,512,512,494.16,512,472.402V39.68C512,17.84,494.16,0,472.398,0z M423.68,206.238l-186.078,170.32
		c-6.801,6.242-15.602,9.68-24.883,9.68c-10.16,0-20-4.321-26.961-11.758L84.187,265.77l-0.906-0.973l4.797-4.48
		c12.082-11.278,27.762-17.438,44.32-17.438c17.84,0,35.203,7.438,47.359,20.562l34.883,37.277l208.641-190.957l4.476,4.797
		C451.84,140.957,450.078,182.082,423.68,206.238z"/>
</g>
</svg>
